<mxfile host="app.diagrams.net" modified="2023-04-24T10:57:40.557Z" agent="Mozilla/5.0 (Windows NT 10.0; Win64; x64) AppleWebKit/537.36 (KHTML, like Gecko) Chrome/112.0.0.0 Safari/537.36" etag="acauvDYzUSFtogLQ6CHE" version="21.1.9" type="device">
  <diagram id="C5RBs43oDa-KdzZeNtuy" name="Page-1">
    <mxGraphModel dx="1434" dy="1957" grid="1" gridSize="10" guides="1" tooltips="1" connect="1" arrows="1" fold="1" page="1" pageScale="1" pageWidth="827" pageHeight="1169" math="0" shadow="0">
      <root>
        <mxCell id="WIyWlLk6GJQsqaUBKTNV-0" />
        <mxCell id="WIyWlLk6GJQsqaUBKTNV-1" parent="WIyWlLk6GJQsqaUBKTNV-0" />
        <mxCell id="No2uH_cMRttVaP7Wa7V3-3" value="" style="html=1;whiteSpace=wrap;" vertex="1" parent="WIyWlLk6GJQsqaUBKTNV-1">
          <mxGeometry x="204" y="-10" width="606" height="760" as="geometry" />
        </mxCell>
        <mxCell id="No2uH_cMRttVaP7Wa7V3-6" value="Выбрать все диагнозы по пациенту" style="ellipse;whiteSpace=wrap;html=1;" vertex="1" parent="WIyWlLk6GJQsqaUBKTNV-1">
          <mxGeometry x="280" width="160" height="60" as="geometry" />
        </mxCell>
        <mxCell id="No2uH_cMRttVaP7Wa7V3-8" value="Выбрать всех пациентов записанных к определенному врачу на определенную дату" style="ellipse;whiteSpace=wrap;html=1;" vertex="1" parent="WIyWlLk6GJQsqaUBKTNV-1">
          <mxGeometry x="280" y="70" width="160" height="90" as="geometry" />
        </mxCell>
        <mxCell id="No2uH_cMRttVaP7Wa7V3-70" style="edgeStyle=orthogonalEdgeStyle;rounded=0;orthogonalLoop=1;jettySize=auto;html=1;exitX=0.5;exitY=0.5;exitDx=0;exitDy=0;exitPerimeter=0;entryX=0.5;entryY=0;entryDx=0;entryDy=0;entryPerimeter=0;" edge="1" parent="WIyWlLk6GJQsqaUBKTNV-1" source="No2uH_cMRttVaP7Wa7V3-0" target="No2uH_cMRttVaP7Wa7V3-1">
          <mxGeometry relative="1" as="geometry">
            <Array as="points">
              <mxPoint x="100" y="200" />
              <mxPoint x="100" y="390" />
              <mxPoint x="135" y="390" />
            </Array>
          </mxGeometry>
        </mxCell>
        <mxCell id="No2uH_cMRttVaP7Wa7V3-71" value="extends" style="edgeLabel;html=1;align=center;verticalAlign=middle;resizable=0;points=[];" vertex="1" connectable="0" parent="No2uH_cMRttVaP7Wa7V3-70">
          <mxGeometry x="0.1727" y="1" relative="1" as="geometry">
            <mxPoint y="-38" as="offset" />
          </mxGeometry>
        </mxCell>
        <mxCell id="No2uH_cMRttVaP7Wa7V3-76" style="edgeStyle=orthogonalEdgeStyle;rounded=0;orthogonalLoop=1;jettySize=auto;html=1;exitX=0.5;exitY=0.5;exitDx=0;exitDy=0;exitPerimeter=0;entryX=0;entryY=0.5;entryDx=0;entryDy=0;" edge="1" parent="WIyWlLk6GJQsqaUBKTNV-1" source="No2uH_cMRttVaP7Wa7V3-0" target="No2uH_cMRttVaP7Wa7V3-6">
          <mxGeometry relative="1" as="geometry" />
        </mxCell>
        <mxCell id="No2uH_cMRttVaP7Wa7V3-77" style="edgeStyle=orthogonalEdgeStyle;rounded=0;orthogonalLoop=1;jettySize=auto;html=1;exitX=0.5;exitY=0.5;exitDx=0;exitDy=0;exitPerimeter=0;entryX=0;entryY=0.5;entryDx=0;entryDy=0;" edge="1" parent="WIyWlLk6GJQsqaUBKTNV-1" source="No2uH_cMRttVaP7Wa7V3-0" target="No2uH_cMRttVaP7Wa7V3-8">
          <mxGeometry relative="1" as="geometry" />
        </mxCell>
        <mxCell id="No2uH_cMRttVaP7Wa7V3-78" style="edgeStyle=orthogonalEdgeStyle;rounded=0;orthogonalLoop=1;jettySize=auto;html=1;exitX=0.5;exitY=0.5;exitDx=0;exitDy=0;exitPerimeter=0;entryX=0;entryY=0.5;entryDx=0;entryDy=0;" edge="1" parent="WIyWlLk6GJQsqaUBKTNV-1" source="No2uH_cMRttVaP7Wa7V3-0" target="No2uH_cMRttVaP7Wa7V3-22">
          <mxGeometry relative="1" as="geometry" />
        </mxCell>
        <mxCell id="No2uH_cMRttVaP7Wa7V3-79" style="edgeStyle=orthogonalEdgeStyle;rounded=0;orthogonalLoop=1;jettySize=auto;html=1;exitX=0.5;exitY=0.5;exitDx=0;exitDy=0;exitPerimeter=0;entryX=0;entryY=0.5;entryDx=0;entryDy=0;" edge="1" parent="WIyWlLk6GJQsqaUBKTNV-1" source="No2uH_cMRttVaP7Wa7V3-0" target="No2uH_cMRttVaP7Wa7V3-68">
          <mxGeometry relative="1" as="geometry" />
        </mxCell>
        <mxCell id="No2uH_cMRttVaP7Wa7V3-80" style="edgeStyle=orthogonalEdgeStyle;rounded=0;orthogonalLoop=1;jettySize=auto;html=1;exitX=0.5;exitY=0.5;exitDx=0;exitDy=0;exitPerimeter=0;entryX=0;entryY=0.5;entryDx=0;entryDy=0;" edge="1" parent="WIyWlLk6GJQsqaUBKTNV-1" source="No2uH_cMRttVaP7Wa7V3-0" target="No2uH_cMRttVaP7Wa7V3-63">
          <mxGeometry relative="1" as="geometry" />
        </mxCell>
        <mxCell id="No2uH_cMRttVaP7Wa7V3-0" value="Доктор" style="shape=umlActor;verticalLabelPosition=bottom;verticalAlign=top;html=1;" vertex="1" parent="WIyWlLk6GJQsqaUBKTNV-1">
          <mxGeometry x="120" y="170" width="30" height="60" as="geometry" />
        </mxCell>
        <mxCell id="No2uH_cMRttVaP7Wa7V3-47" style="edgeStyle=orthogonalEdgeStyle;rounded=0;orthogonalLoop=1;jettySize=auto;html=1;" edge="1" parent="WIyWlLk6GJQsqaUBKTNV-1" source="No2uH_cMRttVaP7Wa7V3-1" target="No2uH_cMRttVaP7Wa7V3-25">
          <mxGeometry relative="1" as="geometry" />
        </mxCell>
        <mxCell id="No2uH_cMRttVaP7Wa7V3-48" style="edgeStyle=orthogonalEdgeStyle;rounded=0;orthogonalLoop=1;jettySize=auto;html=1;" edge="1" parent="WIyWlLk6GJQsqaUBKTNV-1" source="No2uH_cMRttVaP7Wa7V3-1" target="No2uH_cMRttVaP7Wa7V3-23">
          <mxGeometry relative="1" as="geometry">
            <Array as="points">
              <mxPoint x="220" y="450" />
              <mxPoint x="220" y="500" />
            </Array>
          </mxGeometry>
        </mxCell>
        <mxCell id="No2uH_cMRttVaP7Wa7V3-49" style="edgeStyle=orthogonalEdgeStyle;rounded=0;orthogonalLoop=1;jettySize=auto;html=1;entryX=0;entryY=0.5;entryDx=0;entryDy=0;" edge="1" parent="WIyWlLk6GJQsqaUBKTNV-1" source="No2uH_cMRttVaP7Wa7V3-1" target="No2uH_cMRttVaP7Wa7V3-24">
          <mxGeometry relative="1" as="geometry">
            <Array as="points">
              <mxPoint x="220" y="450" />
              <mxPoint x="220" y="555" />
            </Array>
          </mxGeometry>
        </mxCell>
        <mxCell id="No2uH_cMRttVaP7Wa7V3-51" style="edgeStyle=orthogonalEdgeStyle;rounded=0;orthogonalLoop=1;jettySize=auto;html=1;entryX=0;entryY=0.5;entryDx=0;entryDy=0;" edge="1" parent="WIyWlLk6GJQsqaUBKTNV-1" source="No2uH_cMRttVaP7Wa7V3-1" target="No2uH_cMRttVaP7Wa7V3-50">
          <mxGeometry relative="1" as="geometry">
            <Array as="points">
              <mxPoint x="220" y="450" />
              <mxPoint x="220" y="625" />
            </Array>
          </mxGeometry>
        </mxCell>
        <mxCell id="No2uH_cMRttVaP7Wa7V3-59" style="edgeStyle=orthogonalEdgeStyle;rounded=0;orthogonalLoop=1;jettySize=auto;html=1;exitX=0.5;exitY=0.5;exitDx=0;exitDy=0;exitPerimeter=0;" edge="1" parent="WIyWlLk6GJQsqaUBKTNV-1" source="No2uH_cMRttVaP7Wa7V3-1" target="No2uH_cMRttVaP7Wa7V3-34">
          <mxGeometry relative="1" as="geometry" />
        </mxCell>
        <mxCell id="No2uH_cMRttVaP7Wa7V3-67" style="edgeStyle=orthogonalEdgeStyle;rounded=0;orthogonalLoop=1;jettySize=auto;html=1;exitX=0.5;exitY=0.5;exitDx=0;exitDy=0;exitPerimeter=0;entryX=0;entryY=0.5;entryDx=0;entryDy=0;" edge="1" parent="WIyWlLk6GJQsqaUBKTNV-1" source="No2uH_cMRttVaP7Wa7V3-1" target="No2uH_cMRttVaP7Wa7V3-66">
          <mxGeometry relative="1" as="geometry">
            <Array as="points">
              <mxPoint x="220" y="450" />
              <mxPoint x="220" y="705" />
            </Array>
          </mxGeometry>
        </mxCell>
        <mxCell id="No2uH_cMRttVaP7Wa7V3-72" style="edgeStyle=orthogonalEdgeStyle;rounded=0;orthogonalLoop=1;jettySize=auto;html=1;exitX=0.5;exitY=0.5;exitDx=0;exitDy=0;exitPerimeter=0;entryX=0.5;entryY=0;entryDx=0;entryDy=0;entryPerimeter=0;" edge="1" parent="WIyWlLk6GJQsqaUBKTNV-1" source="No2uH_cMRttVaP7Wa7V3-1" target="No2uH_cMRttVaP7Wa7V3-30">
          <mxGeometry relative="1" as="geometry">
            <Array as="points">
              <mxPoint x="100" y="450" />
              <mxPoint x="100" y="790" />
              <mxPoint x="900" y="790" />
              <mxPoint x="900" y="260" />
              <mxPoint x="865" y="260" />
            </Array>
          </mxGeometry>
        </mxCell>
        <mxCell id="No2uH_cMRttVaP7Wa7V3-73" value="extends" style="edgeLabel;html=1;align=center;verticalAlign=middle;resizable=0;points=[];" vertex="1" connectable="0" parent="No2uH_cMRttVaP7Wa7V3-72">
          <mxGeometry x="-0.2456" y="-2" relative="1" as="geometry">
            <mxPoint x="-296" y="-232" as="offset" />
          </mxGeometry>
        </mxCell>
        <mxCell id="No2uH_cMRttVaP7Wa7V3-1" value="Менеджер" style="shape=umlActor;verticalLabelPosition=bottom;verticalAlign=top;html=1;" vertex="1" parent="WIyWlLk6GJQsqaUBKTNV-1">
          <mxGeometry x="120" y="420" width="30" height="60" as="geometry" />
        </mxCell>
        <mxCell id="No2uH_cMRttVaP7Wa7V3-20" value="Поликлиника" style="html=1;whiteSpace=wrap;" vertex="1" parent="WIyWlLk6GJQsqaUBKTNV-1">
          <mxGeometry x="204" y="-60" width="606" height="50" as="geometry" />
        </mxCell>
        <mxCell id="No2uH_cMRttVaP7Wa7V3-22" value="Добавить диагноз конкретному пациенту" style="ellipse;whiteSpace=wrap;html=1;" vertex="1" parent="WIyWlLk6GJQsqaUBKTNV-1">
          <mxGeometry x="280" y="170" width="160" height="40" as="geometry" />
        </mxCell>
        <mxCell id="No2uH_cMRttVaP7Wa7V3-23" value="Отменить запись" style="ellipse;whiteSpace=wrap;html=1;" vertex="1" parent="WIyWlLk6GJQsqaUBKTNV-1">
          <mxGeometry x="280" y="480" width="160" height="40" as="geometry" />
        </mxCell>
        <mxCell id="No2uH_cMRttVaP7Wa7V3-24" value="Зарегистрировать в системе пациента" style="ellipse;whiteSpace=wrap;html=1;" vertex="1" parent="WIyWlLk6GJQsqaUBKTNV-1">
          <mxGeometry x="280" y="530" width="160" height="50" as="geometry" />
        </mxCell>
        <mxCell id="No2uH_cMRttVaP7Wa7V3-25" value="Записать к врачу" style="ellipse;whiteSpace=wrap;html=1;" vertex="1" parent="WIyWlLk6GJQsqaUBKTNV-1">
          <mxGeometry x="280" y="430" width="160" height="40" as="geometry" />
        </mxCell>
        <mxCell id="No2uH_cMRttVaP7Wa7V3-74" style="edgeStyle=orthogonalEdgeStyle;rounded=0;orthogonalLoop=1;jettySize=auto;html=1;exitX=0.5;exitY=0.5;exitDx=0;exitDy=0;exitPerimeter=0;" edge="1" parent="WIyWlLk6GJQsqaUBKTNV-1" source="No2uH_cMRttVaP7Wa7V3-30" target="No2uH_cMRttVaP7Wa7V3-69">
          <mxGeometry relative="1" as="geometry" />
        </mxCell>
        <mxCell id="No2uH_cMRttVaP7Wa7V3-75" style="edgeStyle=orthogonalEdgeStyle;rounded=0;orthogonalLoop=1;jettySize=auto;html=1;exitX=0.5;exitY=0.5;exitDx=0;exitDy=0;exitPerimeter=0;" edge="1" parent="WIyWlLk6GJQsqaUBKTNV-1" source="No2uH_cMRttVaP7Wa7V3-30" target="No2uH_cMRttVaP7Wa7V3-38">
          <mxGeometry relative="1" as="geometry" />
        </mxCell>
        <mxCell id="No2uH_cMRttVaP7Wa7V3-30" value="Админ" style="shape=umlActor;verticalLabelPosition=bottom;verticalAlign=top;html=1;" vertex="1" parent="WIyWlLk6GJQsqaUBKTNV-1">
          <mxGeometry x="850" y="300" width="30" height="60" as="geometry" />
        </mxCell>
        <mxCell id="No2uH_cMRttVaP7Wa7V3-34" value="Выбрать всех врачей к которым записан определенный пациент" style="ellipse;whiteSpace=wrap;html=1;" vertex="1" parent="WIyWlLk6GJQsqaUBKTNV-1">
          <mxGeometry x="290" y="350" width="160" height="70" as="geometry" />
        </mxCell>
        <mxCell id="No2uH_cMRttVaP7Wa7V3-38" value="Зарегистрировать/удалить&lt;br&gt;&amp;nbsp;в системе доктора" style="ellipse;whiteSpace=wrap;html=1;" vertex="1" parent="WIyWlLk6GJQsqaUBKTNV-1">
          <mxGeometry x="580" y="330" width="160" height="60" as="geometry" />
        </mxCell>
        <mxCell id="No2uH_cMRttVaP7Wa7V3-50" value="Выбрать всех врачей, к которым записан пациент и даты записи" style="ellipse;whiteSpace=wrap;html=1;" vertex="1" parent="WIyWlLk6GJQsqaUBKTNV-1">
          <mxGeometry x="280" y="590" width="160" height="70" as="geometry" />
        </mxCell>
        <mxCell id="No2uH_cMRttVaP7Wa7V3-63" value="Записать на повторный прием" style="ellipse;whiteSpace=wrap;html=1;" vertex="1" parent="WIyWlLk6GJQsqaUBKTNV-1">
          <mxGeometry x="280" y="260" width="160" height="50" as="geometry" />
        </mxCell>
        <mxCell id="No2uH_cMRttVaP7Wa7V3-66" value="Определить кабинет для доктора на прием" style="ellipse;whiteSpace=wrap;html=1;" vertex="1" parent="WIyWlLk6GJQsqaUBKTNV-1">
          <mxGeometry x="280" y="680" width="160" height="50" as="geometry" />
        </mxCell>
        <mxCell id="No2uH_cMRttVaP7Wa7V3-68" value="Удалить диагноз конкретному пациенту" style="ellipse;whiteSpace=wrap;html=1;" vertex="1" parent="WIyWlLk6GJQsqaUBKTNV-1">
          <mxGeometry x="280" y="215" width="160" height="40" as="geometry" />
        </mxCell>
        <mxCell id="No2uH_cMRttVaP7Wa7V3-69" value="Зарегистрировать/удалить в системе менеджера" style="ellipse;whiteSpace=wrap;html=1;" vertex="1" parent="WIyWlLk6GJQsqaUBKTNV-1">
          <mxGeometry x="580" y="260" width="160" height="60" as="geometry" />
        </mxCell>
      </root>
    </mxGraphModel>
  </diagram>
</mxfile>
